<?xml version="1.0" standalone="no"?>
<!DOCTYPE svg PUBLIC "-//W3C//DTD SVG 20010904//EN"
 "http://www.w3.org/TR/2001/REC-SVG-20010904/DTD/svg10.dtd">
<svg version="1.0" xmlns="http://www.w3.org/2000/svg"
 width="512.000000pt" height="512.000000pt" viewBox="0 0 512.000000 512.000000"
 preserveAspectRatio="xMidYMid meet">
<metadata>
Created by potrace 1.11, written by Peter Selinger 2001-2013
</metadata>
<g transform="translate(0.000000,512.000000) scale(0.100000,-0.100000)"
fill="#000000" stroke="none">
<path d="M0 3045 l0 -2075 780 0 c513 0 780 -3 780 -10 0 -5 8 -10 18 -10 14
0 15 2 2 10 -10 6 42 9 153 9 103 0 167 -4 167 -10 0 -13 -31 -24 -39 -13 -8
11 -92 14 -85 3 7 -12 -3 -11 -26 1 -13 7 -21 7 -25 0 -3 -5 -11 -10 -16 -10
-6 0 -7 5 -4 10 3 6 2 10 -4 10 -5 0 -15 -8 -20 -17 -6 -10 -11 -13 -11 -7 0
7 -7 15 -16 18 -8 3 -12 2 -9 -4 3 -6 -3 -10 -14 -10 -12 0 -21 5 -21 11 0 8
-5 7 -16 -2 -11 -9 -20 -10 -32 -2 -10 5 -31 8 -47 6 -44 -6 -47 -6 -79 2 -20
5 -27 5 -22 -3 3 -6 1 -14 -5 -18 -7 -4 -9 -3 -5 4 3 6 2 13 -3 16 -5 4 -12 2
-16 -4 -3 -5 -12 -10 -18 -10 -7 0 -6 4 3 10 8 5 10 10 4 10 -5 0 -15 -5 -22
-12 -7 -7 -12 -8 -12 -2 0 5 -21 10 -47 11 -33 1 -50 -3 -60 -15 -12 -16 -12
-16 -13 1 0 9 -5 17 -11 17 -5 0 -7 -6 -3 -12 4 -7 4 -10 -1 -6 -4 4 -16 3
-26 -3 -12 -6 -19 -6 -19 0 0 5 6 11 12 13 7 3 -20 3 -60 2 -40 -2 -77 -6 -83
-9 -5 -4 -9 -1 -9 4 0 6 -9 11 -20 11 -11 0 -20 -4 -20 -9 0 -5 -7 -12 -16
-15 -13 -5 -14 -4 -6 7 9 11 5 13 -23 13 -21 -1 -35 -6 -35 -13 0 -7 -5 -13
-11 -13 -5 0 -7 4 -4 10 7 11 6 11 -42 14 -18 1 -33 -2 -33 -6 0 -4 -6 -5 -14
-2 -8 3 -17 0 -21 -5 -3 -6 -11 -9 -16 -5 -5 3 -6 10 -3 16 4 7 2 8 -5 4 -6
-4 -9 -12 -6 -17 10 -15 -12 -10 -25 6 -7 8 -16 12 -21 9 -16 -10 -69 -13 -69
-3 0 15 -30 10 -36 -6 -4 -8 -10 -12 -15 -9 -5 3 -7 9 -4 13 4 8 -49 5 -72 -4
-7 -2 -23 -1 -35 4 -17 6 -26 4 -36 -8 -7 -9 -12 -11 -11 -6 3 22 -3 23 -53 9
-29 -7 -57 -10 -62 -6 -14 9 -37 9 -54 -2 -8 -5 -12 -3 -10 6 2 8 -8 13 -29
14 -22 1 -30 -3 -26 -12 3 -8 0 -14 -6 -14 -6 0 -11 4 -11 10 0 5 -13 7 -32 3
-21 -4 -29 -3 -25 5 5 6 0 8 -12 5 -13 -3 -18 -11 -14 -21 4 -12 1 -12 -10 3
-13 16 -18 17 -26 6 -6 -9 -11 -10 -15 -2 -4 6 -14 11 -22 11 -12 0 -14 -68
-14 -475 l0 -475 2560 0 2560 0 0 2560 0 2560 -2560 0 -2560 0 0 -2075z m930
1766 c0 -5 51 -112 113 -238 l112 -228 0 -155 0 -155 148 -3 c85 -1 147 -7
147 -12 0 -5 16 -16 35 -24 19 -8 35 -20 35 -25 0 -6 7 -11 15 -11 8 0 15 -4
15 -10 0 -5 -7 -7 -15 -4 -9 4 -15 0 -15 -8 0 -9 13 -14 41 -15 22 -1 46 -6
53 -12 8 -6 19 -3 36 9 14 11 40 20 58 20 17 0 32 4 32 8 0 15 83 -2 87 -18 4
-12 3 -13 -5 -1 -8 10 -25 12 -78 6 -69 -7 -82 -14 -103 -53 -6 -12 -17 -22
-24 -22 -8 0 -8 3 2 9 9 6 -1 10 -33 12 -42 4 -46 2 -46 -18 0 -17 9 -25 38
-33 37 -10 74 -40 84 -70 4 -12 -3 -14 -40 -11 -42 3 -45 2 -33 -13 10 -11 30
-16 71 -16 32 0 74 -7 95 -15 26 -11 50 -14 82 -9 39 6 49 4 60 -12 15 -20 82
-26 118 -9 18 8 19 7 6 -8 -7 -9 -10 -25 -7 -34 4 -10 4 -14 0 -10 -4 4 -14 1
-22 -6 -20 -16 -153 -13 -266 7 -129 23 -153 22 -159 -9 l-4 -26 206 4 c113 2
220 7 237 11 30 8 31 9 30 64 -1 57 11 102 28 102 4 0 1 -11 -8 -25 -13 -19
-14 -30 -6 -45 6 -11 15 -20 21 -20 6 0 9 -14 6 -35 l-5 -36 117 3 c111 3 117
2 139 -21 12 -13 22 -18 22 -11 0 7 -8 19 -17 26 -28 21 7 18 36 -3 l24 -16
-23 -19 c-12 -10 -19 -18 -15 -18 4 0 2 -7 -5 -15 -10 -12 -9 -16 4 -21 9 -3
16 -16 16 -29 0 -26 22 -39 38 -23 15 15 31 -27 37 -100 2 -31 2 -49 -1 -39
-3 9 -12 17 -20 17 -11 0 -12 12 -7 62 4 45 3 59 -5 54 -7 -4 -13 -24 -13 -44
l-2 -37 -7 40 -7 40 -3 -40 -2 -40 -8 33 c-13 55 -23 50 -16 -8 3 -30 9 -131
13 -225 3 -93 10 -173 15 -176 5 -3 7 -55 5 -115 -2 -60 -2 -101 0 -91 3 9 9
17 14 17 12 0 11 -7 -2 -32 -14 -26 -24 -118 -13 -118 17 0 32 15 35 34 2 11
4 -55 4 -147 0 -91 -4 -169 -9 -174 -5 -4 -7 -1 -4 8 3 8 2 35 -2 60 -5 26 -5
48 1 53 5 6 9 19 8 30 0 15 -2 17 -6 6 -3 -8 -9 -17 -14 -20 -4 -3 -3 -50 3
-105 5 -55 9 -113 9 -130 0 -23 2 -26 9 -15 7 11 10 8 10 -15 0 -23 -3 -27
-10 -15 -7 11 -10 -3 -10 -47 0 -36 4 -63 10 -63 6 0 10 -5 10 -11 0 -5 -4 -7
-10 -4 -5 3 -10 -3 -10 -14 0 -12 5 -21 11 -21 6 0 8 -8 4 -19 -5 -16 1 -20
32 -23 21 -3 44 -1 51 5 11 9 57 5 110 -9 18 -5 22 -3 21 17 -1 17 -3 19 -6 7
-2 -10 -9 -18 -14 -18 -6 0 -7 4 -4 10 3 5 8 24 10 41 3 28 2 30 -21 25 -14
-4 -24 -2 -24 4 0 6 5 8 10 5 6 -3 13 2 16 12 3 10 17 41 29 68 21 44 24 47
24 22 1 -16 -4 -37 -9 -48 -8 -14 -7 -39 4 -91 8 -39 13 -74 11 -77 -1 -3 -64
-5 -138 -3 l-134 3 -7 227 c-3 125 -11 288 -16 362 -6 74 -17 293 -25 485 -9
193 -18 387 -21 433 l-6 82 -168 0 -169 0 -5 -42 c-3 -24 -14 -275 -26 -558
-11 -283 -23 -543 -27 -577 -5 -56 -7 -61 -24 -53 -30 17 -48 12 -42 -10 4
-15 0 -20 -16 -20 -22 0 -28 -14 -11 -25 19 -12 11 -38 -10 -32 -11 3 -20 2
-20 -2 0 -5 9 -16 20 -26 30 -27 26 -63 -10 -83 -16 -9 -30 -22 -30 -28 0 -12
72 -34 110 -34 19 0 21 -5 18 -52 l-3 -53 -197 -3 -198 -2 0 784 c0 775 0 784
20 789 16 4 20 13 20 44 0 58 -12 70 -45 49 -15 -10 -34 -31 -43 -47 l-17 -30
-145 2 -145 2 -6 -52 c-4 -28 -10 -309 -13 -624 -3 -314 -9 -650 -12 -744 -6
-162 -7 -173 -25 -173 -11 0 -23 10 -29 24 -5 13 -18 27 -29 31 -30 9 -99 -13
-111 -35 -10 -18 -21 -20 -106 -20 -67 0 -96 4 -99 13 -2 6 -9 129 -15 272 -5
143 -14 357 -20 475 -5 118 -14 332 -20 475 -6 143 -15 282 -18 309 l-7 49
-115 1 -115 1 -3 28 c-3 27 -2 27 52 27 31 0 56 4 56 9 0 11 -53 33 -83 35
-22 1 -22 3 -25 175 l-2 174 160 -8 c167 -7 180 -4 143 34 -10 10 -25 20 -34
24 -32 11 -58 87 -60 172 -1 79 -1 82 58 200 33 66 86 175 119 242 l59 123 38
0 c20 0 37 -4 37 -9z m693 -13 c12 -19 60 -79 195 -243 10 -11 33 -40 52 -65
19 -25 37 -47 40 -50 3 -3 27 -30 53 -62 l48 -56 -7 -140 -7 -140 -71 -6 c-39
-3 -125 -9 -191 -12 -104 -5 -123 -4 -134 10 -7 9 -19 16 -27 16 -7 0 -25 12
-39 27 l-25 28 0 357 0 358 49 0 c39 0 52 -4 64 -22z m1033 -135 c41 -87 91
-189 112 -228 l37 -70 5 -172 c3 -111 1 -174 -5 -176 -5 -2 -46 -1 -90 2 -92
7 -85 -14 -64 165 11 90 16 110 31 114 23 6 16 40 -23 105 -16 26 -29 49 -29
52 0 3 -16 29 -34 59 -19 29 -38 65 -42 80 -3 14 -10 29 -15 32 -12 7 -11 71
1 79 6 3 10 15 10 26 0 10 6 19 13 19 13 0 47 -50 47 -69 0 -6 13 -32 29 -58
16 -27 41 -85 55 -131 23 -73 48 -127 67 -142 3 -3 11 -14 17 -25 11 -19 11
-19 12 3 0 12 -4 22 -9 22 -5 0 -12 14 -16 30 -4 17 -12 36 -19 43 -6 6 -20
35 -30 62 -25 67 -115 254 -137 282 -15 21 -18 21 -24 5 -7 -16 -8 -15 -16 3
-7 16 -8 14 -4 -8 5 -23 2 -30 -15 -34 -11 -3 -20 -14 -20 -24 0 -11 -4 -19
-8 -19 -11 0 -67 -111 -64 -124 2 -5 -1 -12 -6 -15 -16 -11 -24 -49 -11 -57 9
-5 10 -2 6 9 -3 10 -2 17 4 17 7 0 8 -12 4 -32 -8 -39 -25 -61 -18 -24 4 19 1
26 -10 26 -11 0 -15 -9 -13 -35 2 -19 -1 -35 -5 -35 -5 0 -9 5 -9 11 0 5 -5 7
-10 4 -8 -5 -7 -11 0 -21 7 -7 10 -19 7 -26 -4 -8 -6 -7 -6 5 -1 9 -6 17 -12
17 -6 0 -9 -8 -7 -17 2 -10 -4 -27 -14 -37 -10 -11 -18 -29 -17 -40 0 -20 1
-20 9 2 6 12 18 22 30 22 26 0 26 -21 0 -40 -11 -8 -20 -21 -21 -30 0 -10 -3
-9 -9 5 -8 18 -9 17 -9 -7 -1 -16 3 -28 8 -28 5 0 11 -9 14 -19 3 -15 1 -18
-11 -14 -12 5 -14 2 -7 -13 5 -10 8 -35 7 -54 -1 -25 2 -30 8 -20 7 10 8 -1 4
-32 -4 -31 -3 -48 4 -48 6 0 12 3 14 8 2 4 59 5 128 2 72 -3 127 -2 129 4 2 5
10 -5 17 -23 7 -17 20 -31 29 -31 8 0 15 -6 15 -14 0 -12 -5 -12 -30 -3 -16 6
-30 16 -30 22 0 8 -47 11 -152 11 l-153 -1 -9 158 -9 158 50 102 c27 56 81
166 119 245 64 132 70 142 97 142 26 0 32 -10 103 -157z m954 -222 c0 -206 -1
-376 -3 -377 -1 -1 -22 2 -47 6 -25 5 -134 9 -242 10 l-198 0 0 68 c0 37 -3
90 -6 117 -4 44 -2 54 23 84 56 68 170 208 237 291 149 185 145 181 193 178
l44 -3 -1 -374z m697 271 c28 -59 82 -170 119 -247 l66 -140 -3 -145 -4 -145
103 -3 102 -3 0 -169 0 -169 -87 -4 c-105 -5 -193 -25 -172 -38 8 -5 36 -7 63
-3 26 3 81 3 122 -1 74 -7 74 -7 74 -37 l0 -30 -102 3 -103 3 -6 -100 c-4 -54
-10 -341 -14 -638 -6 -530 -7 -539 -28 -572 -25 -38 -33 -41 -59 -17 -17 15
-18 15 -18 -12 0 -15 -9 -42 -19 -59 -24 -38 -14 -69 14 -46 13 11 23 10 61
-9 31 -16 44 -28 40 -38 -3 -8 -6 -35 -6 -59 l0 -44 -194 0 -194 0 -6 48 c-3
26 -20 362 -36 747 -29 692 -36 795 -48 795 -4 0 -86 1 -182 1 l-175 1 -2
-794 -3 -793 -30 0 -31 0 -3 80 c-4 89 -23 175 -38 175 -10 0 -8 -34 8 -133 4
-21 1 -58 -6 -83 l-13 -44 -137 0 -138 0 -6 73 c-6 77 -16 292 -41 857 -9 195
-19 425 -23 510 l-7 155 -164 3 c-91 1 -168 -1 -172 -5 -4 -5 -10 -267 -14
-583 -4 -316 -8 -597 -10 -625 -1 -27 -2 -126 -3 -218 -2 -153 -4 -168 -19
-165 -13 2 -18 15 -21 48 -2 25 -14 68 -28 97 -13 28 -24 57 -24 62 0 6 -4 11
-8 11 -5 0 -9 18 -10 41 -3 60 -22 172 -32 184 -19 24 -50 260 -50 389 0 122
23 286 41 286 11 0 53 -40 71 -68 18 -27 18 -27 18 63 -1 59 -6 99 -15 115 -8
14 -14 43 -15 66 0 28 -6 47 -20 59 -22 20 -27 7 -10 -26 7 -13 7 -19 0 -19
-5 0 -10 -12 -10 -27 0 -23 2 -25 11 -13 9 12 10 12 7 1 -3 -8 -9 -16 -16 -19
-7 -2 -12 21 -14 72 -2 45 -7 75 -13 74 -6 -2 -9 -32 -7 -73 3 -54 8 -74 23
-87 20 -17 26 -34 9 -23 -17 11 -11 -28 10 -63 12 -20 25 -30 32 -26 6 4 8 3
4 -4 -3 -6 -2 -13 4 -17 5 -3 10 -11 10 -17 0 -6 -15 4 -34 23 -19 18 -32 37
-30 41 3 4 2 8 -3 8 -4 0 -16 -14 -26 -32 -15 -25 -20 -29 -27 -17 -7 10 -4
19 10 29 33 26 35 63 3 98 -15 18 -32 32 -39 32 -21 0 -34 50 -33 126 1 53 -3
79 -12 85 -11 6 -10 9 4 15 9 3 17 12 17 20 0 7 6 11 13 8 8 -3 18 6 25 20 9
21 20 25 77 31 36 4 81 5 100 2 27 -4 33 -3 28 9 -3 8 1 14 10 14 8 0 17 5 19
11 5 14 331 13 336 -1 2 -6 94 -10 231 -10 214 0 227 1 228 19 1 17 -10 19
-130 25 -73 4 -157 14 -187 23 -48 14 -106 15 -440 10 -212 -4 -393 -8 -403
-10 -10 -2 -23 -10 -27 -18 -8 -11 -12 -10 -24 6 -9 11 -15 25 -16 30 0 6 5 3
10 -5 8 -13 11 -13 22 2 20 24 148 55 303 73 28 3 102 -2 165 -10 62 -8 148
-15 189 -15 76 0 296 29 381 50 25 6 69 16 98 23 29 7 53 16 53 20 -1 4 -1 51
-1 104 0 90 -1 95 -16 77 -8 -10 -12 -13 -8 -5 6 11 -3 12 -52 6 -32 -4 -85
-8 -116 -8 -31 -1 -55 -5 -52 -8 2 -4 -1 -11 -7 -15 -6 -3 -14 -1 -18 5 -10
15 -127 25 -136 11 -9 -14 -38 -12 -61 5 -17 13 -16 14 16 5 44 -12 46 -12 34
0 -6 6 -24 11 -40 11 -143 1 -217 -2 -231 -10 -10 -5 -26 -12 -35 -15 -9 -2
-18 -15 -20 -28 -4 -22 -5 -22 -24 9 -10 18 -26 34 -34 36 -11 2 -10 6 6 14
19 11 148 14 484 9 52 0 187 2 300 6 113 4 242 7 288 8 l83 0 -6 153 -7 152
121 243 121 242 32 0 c32 -1 35 -4 85 -108z m-1791 -29 c-4 -14 -2 -39 5 -55
10 -24 9 -32 -3 -44 -14 -14 -16 -13 -21 6 -4 17 -3 19 9 9 12 -10 12 -5 0 33
-9 32 -10 48 -2 61 15 24 19 21 12 -10z m-32 -52 c3 -4 -1 -16 -8 -26 -9 -13
-15 -15 -20 -7 -4 7 -3 12 3 12 6 0 8 7 5 15 -6 16 11 21 20 6z m-14 -113 c0
-5 -7 -8 -15 -8 -17 0 -18 2 -9 25 5 13 8 14 15 3 5 -7 9 -16 9 -20z m60 -4
c0 -3 -7 -1 -15 6 -8 7 -15 17 -15 22 0 5 7 3 15 -6 8 -8 15 -18 15 -22z m22
-6 c-8 -8 -9 -4 -5 13 4 13 8 18 11 10 2 -7 -1 -18 -6 -23z m43 -38 c9 -17 13
-36 9 -42 -5 -7 -2 -9 8 -6 8 4 20 -2 27 -14 11 -18 10 -19 -11 -13 -13 4 -25
12 -26 16 -2 5 -8 6 -14 3 -7 -4 -7 0 0 12 7 14 6 25 -4 39 -14 19 -18 35 -9
35 2 0 12 -14 20 -30z m5 -90 c0 -5 -2 -10 -4 -10 -3 0 -8 5 -11 10 -3 6 -1
10 4 10 6 0 11 -4 11 -10z m44 -12 c-7 -11 -34 -10 -34 1 0 6 9 9 19 8 11 0
17 -5 15 -9z m-254 -8 c0 -5 -4 -10 -10 -10 -5 0 -10 5 -10 10 0 6 5 10 10 10
6 0 10 -4 10 -10z m23 -33 c-8 -5 -17 -6 -20 -3 -4 3 -1 6 5 6 7 0 9 7 5 17
-6 15 -5 16 9 3 14 -13 14 -16 1 -23z m251 24 c3 -5 -6 -8 -20 -8 -19 0 -22 2
-13 8 18 11 26 11 33 0z m-64 -15 c0 -8 -4 -18 -10 -21 -5 -3 -10 3 -10 14 0
12 5 21 10 21 6 0 10 -6 10 -14z m70 -26 c0 -4 -7 -11 -16 -14 -10 -4 -13 -2
-8 6 4 7 3 8 -4 4 -7 -4 -12 -24 -12 -44 l0 -37 -26 27 -27 26 24 24 c23 23
69 28 69 8z m-262 -55 c-2 -17 -6 -21 -14 -14 -13 11 -7 52 7 43 5 -3 8 -16 7
-29z m-33 -6 c10 -15 -1 -23 -20 -15 -9 3 -13 10 -10 16 8 13 22 13 30 -1z
m235 -39 c16 0 18 -6 13 -37 -9 -57 -22 -75 -17 -23 5 45 5 45 -9 15 l-14 -30
1 47 c1 27 3 43 4 38 2 -6 12 -10 22 -10z m-246 -45 c3 -8 1 -15 -4 -15 -6 0
-10 7 -10 15 0 8 2 15 4 15 2 0 6 -7 10 -15z m6 -51 c0 -8 -4 -14 -8 -14 -4 0
-8 9 -8 19 0 11 4 17 8 15 4 -3 8 -12 8 -20z m210 -10 c0 -19 4 -25 14 -21 10
4 13 1 9 -9 -3 -7 -14 -14 -24 -14 -15 0 -19 7 -19 35 0 19 5 35 10 35 6 0 10
-12 10 -26z m-150 -16 c0 -36 -4 -35 -14 5 -4 16 -2 27 4 27 5 0 10 -14 10
-32z m-124 -95 c4 -16 15 -35 26 -44 20 -18 24 -39 8 -39 -5 0 -10 -7 -10 -15
0 -8 -4 -15 -10 -15 -5 0 -10 9 -10 20 0 12 7 20 17 20 14 0 13 4 -6 24 -13
14 -31 23 -42 21 -12 -3 -19 2 -19 12 0 13 2 14 17 2 14 -12 16 -12 11 1 -2 8
-17 16 -32 18 -28 3 -28 3 -12 -19 21 -31 20 -39 -6 -39 -17 0 -19 3 -10 9 11
6 9 9 -7 14 -11 2 -22 0 -25 -7 -2 -6 -3 -1 -3 11 1 12 5 19 9 17 4 -3 8 0 8
5 0 6 -9 11 -20 11 -11 0 -20 -7 -20 -15 0 -8 -5 -15 -11 -15 -5 0 -7 5 -4 10
3 6 1 10 -4 10 -6 0 -11 -5 -11 -11 0 -6 -9 -8 -22 -3 -30 10 -100 5 -113 -7
-5 -6 6 -8 32 -7 24 1 47 -5 55 -13 15 -15 13 -39 -3 -39 -6 0 -8 4 -4 9 3 5
1 12 -4 16 -14 8 -101 14 -96 5 2 -3 -9 -4 -26 -2 -16 2 -29 9 -29 14 0 5 9 7
19 3 11 -3 22 -1 26 5 4 6 -7 10 -29 10 -20 0 -36 5 -36 10 0 18 -22 10 -27
-10 -7 -26 -30 -26 -38 0 -4 11 -11 18 -16 15 -5 -4 -9 -1 -9 4 0 6 9 11 21
11 11 0 17 -4 14 -10 -3 -5 1 -10 10 -10 9 0 14 4 11 8 -3 5 41 9 97 10 56 1
116 6 132 11 17 5 67 10 112 10 82 1 83 1 89 -26z m-711 7 c3 -5 -1 -10 -10
-10 -12 0 -15 -5 -11 -16 4 -10 1 -14 -6 -12 -7 3 -14 14 -16 26 -3 16 2 22
17 22 11 0 23 -4 26 -10z m775 -21 c0 -10 -4 -19 -10 -19 -5 0 -10 4 -10 9 0
5 -3 17 -6 25 -5 12 -2 15 10 10 9 -3 16 -15 16 -25z m-714 5 c-3 -8 -1 -14 4
-14 6 0 10 5 10 10 0 6 16 10 35 10 19 0 35 -4 35 -10 0 -5 -8 -10 -17 -10
-18 0 -85 -22 -93 -30 -8 -8 -70 -6 -70 2 0 5 7 8 16 8 10 0 14 6 10 15 -3 9
0 15 9 15 8 0 15 3 15 8 0 4 12 8 26 8 18 2 24 -2 20 -12z m904 4 c0 -5 -32
-8 -71 -8 -44 0 -68 4 -64 10 7 11 135 9 135 -2z m40 2 c0 -5 -2 -10 -4 -10
-3 0 -8 5 -11 10 -3 6 -1 10 4 10 6 0 11 -4 11 -10z m150 -10 c0 -12 -6 -20
-12 -19 -44 5 -55 -1 -51 -28 3 -26 3 -27 -6 -5 -14 30 -3 55 20 49 11 -3 19
-1 19 5 0 5 5 6 10 3 6 -3 10 -1 10 4 0 6 2 11 5 11 3 0 5 -9 5 -20z m778 -3
c6 -5 12 -15 12 -23 0 -14 -2 -13 -16 0 -8 9 -20 16 -25 16 -5 0 -9 4 -9 9 0
10 19 9 38 -2z m-726 -22 c-6 -32 -17 -39 -39 -26 -17 10 -16 11 5 17 12 3 22
13 22 20 0 8 4 14 9 14 4 0 6 -11 3 -25z m348 5 c0 -5 -22 -10 -50 -10 -29 0
-50 -5 -50 -11 0 -5 -5 -7 -11 -4 -17 11 -1 19 54 26 29 3 53 7 55 8 1 0 2 -3
2 -9z m-528 -9 c-7 -4 -14 -17 -15 -29 0 -11 -5 -18 -9 -16 -5 3 -7 8 -5 12 2
4 7 15 10 25 4 9 12 17 19 17 10 0 10 -2 0 -9z m-330 -60 c-3 -53 -1 -60 17
-66 12 -3 21 -11 21 -16 0 -15 -63 -39 -74 -29 -6 6 -15 2 -22 -8 -8 -9 -14
-12 -14 -5 0 6 5 15 10 18 6 4 8 11 5 16 -4 5 -1 9 4 9 6 0 11 -5 11 -11 0
-14 42 -7 47 8 6 16 -17 20 -146 28 -76 5 -111 3 -107 -3 3 -6 2 -13 -3 -16
-5 -3 -11 1 -15 9 -3 8 -12 12 -21 9 -15 -6 -19 3 -16 41 2 17 0 17 -8 5 -9
-13 -11 -13 -11 2 0 22 36 43 46 26 4 -6 3 -8 -3 -5 -6 4 -10 -5 -9 -22 1 -16
4 -27 8 -25 3 2 9 -2 11 -8 4 -8 8 -5 12 9 7 23 48 37 157 53 31 4 67 15 79
24 13 9 24 16 24 16 0 0 -2 -27 -3 -59z m1038 49 c11 -7 3 -10 -30 -10 -33 0
-41 3 -30 10 8 5 22 10 30 10 8 0 22 -5 30 -10z m-1167 -7 c-7 -2 -21 -2 -30
0 -10 3 -4 5 12 5 17 0 24 -2 18 -5z m234 -25 c-3 -7 -5 -2 -5 12 0 14 2 19 5
13 2 -7 2 -19 0 -25z m781 18 c-7 -8 -15 -12 -17 -11 -5 6 10 25 20 25 5 0 4
-6 -3 -14z m55 7 c-7 -2 -19 -2 -25 0 -7 3 -2 5 12 5 14 0 19 -2 13 -5z
m-1263 -13 c0 -5 -9 -10 -20 -10 -11 0 -20 5 -20 10 0 6 9 10 20 10 11 0 20
-4 20 -10z m90 -11 c0 -5 -7 -9 -15 -9 -9 0 -12 6 -9 15 6 15 24 11 24 -6z
m-180 7 c0 -2 -9 -6 -20 -9 -11 -3 -20 -1 -20 4 0 5 9 9 20 9 11 0 20 -2 20
-4z m1263 -3 c-7 -2 -19 -2 -25 0 -7 3 -2 5 12 5 14 0 19 -2 13 -5z m262 -3
c18 -7 18 -8 3 -15 -11 -4 -24 -1 -33 9 -18 18 -5 21 30 6z m112 -16 c2 -13 1
-15 -4 -4 -3 8 -11 19 -17 23 -7 6 -6 7 4 4 8 -2 16 -12 17 -23z m-157 -14 c0
-5 -4 -10 -10 -10 -5 0 -10 5 -10 10 0 6 5 10 10 10 6 0 10 -4 10 -10z m211 1
c5 9 8 1 7 -24 -1 -24 -4 -33 -9 -25 -8 12 -13 4 -10 -15 1 -5 -3 -6 -8 -3 -5
4 -8 19 -7 34 6 44 7 48 13 33 5 -11 7 -11 14 0z m-61 -56 c-18 -21 -29 -18
-23 5 3 11 9 17 14 14 5 -3 10 3 10 13 1 17 2 17 6 0 3 -10 -1 -24 -7 -32z
m-1906 26 c3 -4 -6 -6 -19 -3 -14 2 -25 6 -25 8 0 8 39 4 44 -5z m786 -11 c0
-5 -4 -10 -10 -10 -5 0 -10 5 -10 10 0 6 5 10 10 10 6 0 10 -4 10 -10z m205 0
c3 -5 -3 -10 -15 -10 -12 0 -18 5 -15 10 3 6 10 10 15 10 5 0 12 -4 15 -10z
m-948 -22 c-3 -8 -6 -5 -6 6 -1 11 2 17 5 13 3 -3 4 -12 1 -19z m24 -15 c-8
-15 -10 -15 -11 -2 0 17 10 32 18 25 2 -3 -1 -13 -7 -23z m409 17 c-17 -5 -19
-8 -7 -9 9 -1 17 -3 17 -5 0 -2 3 -11 6 -20 3 -9 1 -16 -5 -16 -6 0 -11 6 -11
14 0 9 -7 12 -20 9 -11 -3 -20 -9 -20 -13 0 -4 -16 -10 -35 -12 -33 -4 -35 -3
-34 27 1 23 3 25 6 8 2 -13 9 -23 14 -23 6 0 7 6 3 13 -5 8 -2 7 10 -2 15 -13
19 -11 38 12 12 15 31 27 42 26 18 -1 18 -2 -4 -9z m723 3 c-7 -2 -21 -2 -30
0 -10 3 -4 5 12 5 17 0 24 -2 18 -5z m184 1 c-3 -3 -12 -4 -19 -1 -8 3 -5 6 6
6 11 1 17 -2 13 -5z m203 -4 c0 -5 -4 -10 -10 -10 -5 0 -10 5 -10 10 0 6 5 10
10 10 6 0 10 -4 10 -10z m190 -15 c0 -18 36 -13 60 8 22 18 30 21 30 10 0 -10
-58 -43 -75 -43 -8 0 -18 6 -22 13 -4 6 -14 12 -22 12 -8 0 -16 5 -18 11 -2 7
6 10 22 7 14 -3 25 -11 25 -18z m-731 -1 c2 -2 -12 -4 -32 -4 -20 0 -37 4 -37
10 0 8 58 3 69 -6z m666 6 c4 -6 -6 -10 -22 -10 -22 0 -25 2 -13 10 19 12 27
12 35 0z m-1105 -11 c0 -5 -4 -8 -9 -5 -4 3 -22 1 -39 -3 -23 -7 -32 -6 -36 5
-4 11 5 14 39 14 25 0 45 -5 45 -11z m200 -9 c0 -11 -4 -20 -10 -20 -5 0 -10
9 -10 20 0 11 5 20 10 20 6 0 10 -9 10 -20z m305 10 c4 -6 -7 -10 -25 -10 -18
0 -29 4 -25 10 3 6 15 10 25 10 10 0 22 -4 25 -10z m-68 -26 c2 -7 -8 -9 -27
-6 -16 2 -30 9 -30 14 0 13 53 6 57 -8z m130 10 c-3 -3 -12 -4 -19 -1 -8 3 -5
6 6 6 11 1 17 -2 13 -5z m253 -6 c0 -4 -16 -8 -35 -8 -19 0 -35 4 -35 10 0 5
16 9 35 8 19 -1 35 -5 35 -10z m-830 -8 c0 -5 -9 -10 -19 -10 -11 0 -26 -3
-35 -6 -9 -3 -16 -1 -16 4 0 6 12 13 28 15 15 2 30 5 35 6 4 0 7 -3 7 -9z
m125 -9 c-3 -6 -16 -11 -28 -11 -21 1 -21 1 3 15 27 14 36 13 25 -4z m528 12
c-7 -2 -21 -2 -30 0 -10 3 -4 5 12 5 17 0 24 -2 18 -5z m507 3 c0 -3 -4 -8
-10 -11 -5 -3 -10 -1 -10 4 0 6 5 11 10 11 6 0 10 -2 10 -4z m-1445 -16 c-27
-12 -43 -12 -25 0 8 5 22 9 30 9 10 0 8 -3 -5 -9z m1280 0 c-3 -5 -14 -10 -23
-9 -14 0 -13 2 3 9 27 11 27 11 20 0z m-1475 -10 c0 -5 -4 -10 -10 -10 -5 0
-10 5 -10 10 0 6 5 10 10 10 6 0 10 -4 10 -10z m70 -2 c0 -4 -7 -8 -15 -8 -8
0 -15 4 -15 8 0 5 7 9 15 9 8 0 15 -4 15 -9z m579 -19 c-6 -12 -13 -18 -16
-15 -3 3 -1 12 5 19 7 8 8 18 4 22 -4 5 -1 5 6 1 9 -5 9 -12 1 -27z m50 24
c-3 -21 2 -33 13 -27 7 5 8 3 3 -6 -6 -10 -11 -9 -21 5 -7 10 -11 22 -8 26 6
11 14 12 13 2z m156 -3 c-3 -5 -14 -10 -23 -10 -15 0 -15 2 -2 10 20 13 33 13
25 0z m-745 -20 c0 -5 -8 -10 -17 -10 -15 0 -16 -2 -3 -10 17 -11 10 -13 -14
-4 -12 5 -13 9 -3 20 14 16 37 18 37 4z m149 -8 c12 -12 12 -15 0 -23 -20 -13
-40 -11 -73 6 -15 8 -36 15 -45 15 -13 0 -14 2 -2 9 21 14 104 8 120 -7z m506
8 c3 -5 2 -10 -4 -10 -5 0 -13 5 -16 10 -3 6 -2 10 4 10 5 0 13 -4 16 -10z
m-405 -15 c0 -8 -4 -15 -10 -15 -5 0 -10 7 -10 15 0 8 5 15 10 15 6 0 10 -7
10 -15z m50 1 c0 -17 -28 -41 -37 -32 -3 3 -1 6 5 6 7 0 12 9 12 20 0 11 5 20
10 20 6 0 10 -6 10 -14z m272 -18 c-9 -9 -15 -9 -24 0 -9 9 -7 12 12 12 19 0
21 -3 12 -12z m-43 -30 c0 -13 -3 -17 -6 -10 -2 6 -12 12 -21 13 -14 0 -13 2
3 9 11 5 21 9 23 9 1 1 2 -9 1 -21z m576 -28 c4 -6 -7 -10 -24 -10 -17 0 -31
4 -31 8 0 11 48 13 55 2z m120 0 c-4 -7 -75 -1 -75 6 0 3 18 4 39 2 22 -1 38
-5 36 -8z m183 -5 c12 0 22 -3 22 -7 0 -4 -30 -7 -67 -6 -38 0 -62 3 -54 5 11
5 11 7 0 14 -9 6 4 6 31 2 25 -4 55 -7 68 -8z m-1113 -5 c8 -13 -5 -13 -25 0
-13 8 -13 10 2 10 9 0 20 -4 23 -10z m255 0 c0 -5 -4 -10 -10 -10 -5 0 -10 5
-10 10 0 6 5 10 10 10 6 0 10 -4 10 -10z m95 0 c-28 -12 -37 -12 -30 0 3 6 16
10 28 9 21 0 21 -1 2 -9z m160 3 c-11 -3 -28 -15 -37 -26 -20 -23 -25 -38 -6
-19 7 7 32 12 57 12 51 0 51 -11 0 -12 -19 0 -42 -5 -51 -9 -10 -6 -34 -6 -57
0 -45 10 -51 3 -40 -44 4 -16 7 -24 8 -17 1 17 21 15 21 -2 0 -27 -35 -10 -45
22 -6 22 -15 32 -30 32 -20 0 -51 -36 -36 -42 4 -2 11 -16 15 -32 6 -26 6 -27
-9 -13 -9 9 -15 18 -15 19 1 2 -3 15 -9 30 -8 22 -8 26 5 21 10 -4 12 0 8 11
-10 26 3 51 20 37 10 -9 16 -7 26 4 8 9 20 13 29 10 9 -4 30 -8 48 -9 30 -1
31 0 16 16 -15 17 -13 18 43 17 32 -1 50 -4 39 -6z m130 -13 c22 -4 33 -8 23
-9 -9 0 -19 -7 -21 -13 -4 -10 -8 -9 -17 2 -9 11 -13 12 -17 3 -5 -15 -33 -18
-33 -4 0 5 8 12 18 14 13 4 12 5 -5 6 -12 0 -25 6 -29 13 -5 8 0 9 17 4 13 -5
42 -11 64 -16z m78 13 c-13 -2 -33 -2 -45 0 -13 2 -3 4 22 4 25 0 35 -2 23 -4z
m481 -8 c17 -13 18 -15 3 -15 -9 0 -17 4 -17 9 0 5 -10 12 -22 14 -20 4 -20 4
-3 5 11 1 29 -5 39 -13z m-1714 -5 c0 -5 -2 -10 -4 -10 -3 0 -8 5 -11 10 -3 6
-1 10 4 10 6 0 11 -4 11 -10z m877 -190 c2 -18 0 -18 -13 -6 -17 18 -18 26 -1
26 7 0 13 -9 14 -20z m5 -95 c-4 -34 -22 -50 -22 -19 0 14 17 54 23 54 2 0 1
-16 -1 -35z m-84 -82 c0 -26 5 -49 11 -51 13 -4 15 -32 3 -32 -12 0 -32 62
-32 98 0 18 4 32 9 32 5 0 9 -21 9 -47z m103 10 c-12 -20 -14 -14 -5 12 4 9 9
14 11 11 3 -2 0 -13 -6 -23z m59 -36 c12 -4 11 -6 -2 -6 -10 -1 -18 -7 -19
-13 -1 -17 -17 22 -18 42 0 13 1 13 12 -1 7 -9 19 -18 27 -22z m-90 -2 c0 -7
-7 -15 -15 -19 -11 -4 -15 1 -15 19 0 18 4 23 15 19 8 -4 15 -12 15 -19z m210
-10 c0 -8 -2 -15 -4 -15 -2 0 -6 7 -10 15 -3 8 -1 15 4 15 6 0 10 -7 10 -15z
m-70 -30 c0 -8 -7 -15 -15 -15 -8 0 -15 -5 -15 -12 0 -6 -3 -9 -6 -6 -8 8 14
48 26 48 6 0 10 -7 10 -15z m-169 -22 c-12 -20 -14 -14 -5 12 4 9 9 14 11 11
3 -2 0 -13 -6 -23z m39 17 c0 -5 -5 -10 -11 -10 -5 0 -7 5 -4 10 3 6 8 10 11
10 2 0 4 -4 4 -10z m206 -20 c-1 -32 -10 -39 -20 -14 -4 11 8 39 20 44 1 0 1
-13 0 -30z m-306 -55 l-7 -70 -2 66 c0 36 2 69 6 72 11 11 11 5 3 -68z m17
-47 c-2 -13 -4 -5 -4 17 -1 22 1 32 4 23 2 -10 2 -28 0 -40z m183 -12 c0 -3
-4 -8 -10 -11 -5 -3 -10 -1 -10 4 0 6 5 11 10 11 6 0 10 -2 10 -4z m-160 -110
c0 -26 -6 -18 -14 19 -5 22 -4 26 4 15 5 -8 10 -24 10 -34z m-21 -83 c0 -34
-1 -36 -11 -16 -6 12 -8 29 -5 37 11 27 17 18 16 -21z m11 -93 c-6 -11 -8 -26
-4 -32 4 -7 3 -8 -4 -4 -15 9 -16 46 -2 46 6 0 10 8 11 18 0 9 3 12 5 5 3 -7
0 -21 -6 -33z m150 -32 c0 -32 -3 -39 -10 -28 -13 20 -13 70 0 70 6 0 10 -19
10 -42z m-160 -22 c0 -3 -4 -8 -10 -11 -5 -3 -10 -1 -10 4 0 6 5 11 10 11 6 0
10 -2 10 -4z m192 -213 c1 -21 1 -49 1 -63 -1 -14 5 -29 13 -33 8 -4 14 -18
13 -30 0 -21 -1 -21 -21 5 -24 31 -33 78 -15 78 8 0 8 3 2 8 -13 9 -17 72 -4
72 5 0 10 -17 11 -37z m-19 -140 c-5 -34 -4 -36 8 -20 13 16 14 14 14 -17 0
-29 -3 -35 -20 -32 -17 2 -21 12 -23 54 -2 41 0 52 12 52 11 0 13 -8 9 -37z
m57 -43 c0 -5 -7 -7 -15 -4 -8 4 -15 8 -15 10 0 2 7 4 15 4 8 0 15 -4 15 -10z
m-14 -107 c-4 -4 -11 -1 -16 7 -16 25 -11 35 7 17 9 -9 13 -20 9 -24z m-26 -3
c0 -5 -2 -10 -4 -10 -3 0 -8 5 -11 10 -3 6 -1 10 4 10 6 0 11 -4 11 -10z
m-173 -22 c-3 -8 -6 -5 -6 6 -1 11 2 17 5 13 3 -3 4 -12 1 -19z m167 -23 c3
-8 1 -15 -4 -15 -6 0 -10 7 -10 15 0 8 2 15 4 15 2 0 6 -7 10 -15z m-64 -55
c0 -5 -7 -10 -15 -10 -8 0 -15 5 -15 10 0 6 7 10 15 10 8 0 15 -4 15 -10z m71
-43 c-16 -16 -26 0 -10 19 9 11 15 12 17 4 2 -6 -1 -17 -7 -23z m-1861 -390
c188 -93 137 -370 -71 -385 -99 -7 -169 34 -210 123 -77 166 114 344 281 262z
m440 -27 l0 -49 -72 -3 -73 -3 -3 -32 -3 -33 60 0 c34 0 61 -3 61 -7 0 -12
-24 -76 -34 -91 -4 -7 -20 -13 -34 -12 -49 4 -51 2 -54 -57 -3 -51 -6 -59 -30
-73 -25 -13 -31 -13 -55 0 l-28 16 -3 197 -2 197 135 0 135 0 0 -50z m288 -2
l3 -48 -75 0 -76 0 0 -35 0 -35 54 0 c30 0 57 -4 60 -9 4 -5 -3 -30 -14 -55
-18 -44 -21 -46 -60 -46 l-40 0 0 -47 c0 -80 -63 -121 -110 -71 -18 19 -20 35
-20 133 0 62 3 147 6 189 l7 77 131 -3 131 -3 3 -47z m461 28 c19 -20 21 -28
12 -45 -13 -23 -44 -43 -64 -40 -37 5 -38 2 -36 -148 l1 -148 -61 -3 -61 -3 0
151 c0 113 -3 150 -12 151 -7 0 -26 2 -43 2 -29 2 -30 4 -33 55 l-3 52 139 0
c133 0 139 -1 161 -24z m161 -41 l0 -65 50 -25 c27 -14 52 -25 55 -25 3 0 5
41 5 90 l0 90 65 0 65 0 0 -187 c0 -178 -1 -188 -22 -210 -12 -13 -32 -23 -45
-23 -38 0 -57 33 -63 108 l-5 67 -50 0 -50 0 -3 -82 -3 -83 -59 0 -60 0 0 198
c0 109 3 202 7 205 3 4 30 7 60 7 l53 0 0 -65z m585 15 l0 -45 -82 -3 -83 -3
0 -29 c0 -28 1 -29 57 -32 53 -3 58 -5 68 -32 8 -24 6 -31 -14 -47 -15 -12
-39 -19 -67 -19 -40 0 -44 -2 -44 -25 0 -25 1 -25 83 -25 46 0 86 -2 89 -5 3
-3 -2 -26 -11 -50 l-16 -45 -132 0 -133 0 0 205 0 206 143 -3 142 -3 0 -45z
m505 0 l0 -50 -70 0 -70 0 0 -35 0 -35 54 0 c30 0 57 -3 59 -7 3 -5 -3 -28
-13 -53 -17 -42 -20 -45 -56 -46 l-39 0 -3 -52 c-2 -41 -8 -55 -29 -72 -31
-24 -51 -25 -81 -4 -21 15 -22 20 -22 210 l0 194 135 0 135 0 0 -50z m300 0
l0 -49 -82 -3 c-81 -3 -83 -4 -83 -28 0 -23 4 -25 55 -30 49 -5 56 -8 65 -34
8 -24 6 -31 -14 -47 -14 -11 -39 -19 -62 -19 -41 0 -53 -10 -45 -38 5 -15 17
-17 91 -14 55 2 85 0 85 -7 0 -6 -7 -29 -16 -51 l-16 -40 -134 0 -134 0 0 128
c0 71 3 163 6 205 l7 77 138 0 139 0 0 -50z m174 33 c3 -10 14 -30 23 -44 10
-15 32 -48 48 -75 l30 -49 3 93 3 92 54 0 55 0 0 -205 0 -205 -54 0 -53 0 -39
58 c-21 31 -47 75 -59 97 l-20 40 -3 -85 c-2 -72 -6 -88 -23 -102 -27 -23 -52
-23 -73 1 -15 16 -17 43 -17 197 0 99 1 185 1 192 0 8 19 12 59 12 47 0 60 -4
65 -17z m556 -4 c28 -12 61 -36 75 -55 l26 -34 -46 -20 c-47 -20 -47 -20 -75
0 -56 40 -140 17 -160 -45 -24 -72 41 -144 116 -130 19 3 45 17 56 31 27 30
71 32 92 3 39 -56 -62 -139 -169 -139 -179 0 -270 202 -152 337 62 70 150 89
237 52z m430 -29 l0 -49 -82 -3 c-82 -3 -83 -3 -86 -30 -3 -27 -2 -28 49 -28
53 0 89 -19 89 -46 0 -26 -52 -55 -95 -52 -38 2 -40 1 -40 -26 l0 -29 77 2
c43 1 82 0 87 -4 6 -3 4 -23 -6 -50 l-15 -45 -129 0 -129 0 0 205 0 205 140 0
140 0 0 -50z m-2640 -683 c0 -8 -12 -14 -30 -14 -16 0 -27 5 -23 10 3 5 -3 6
-16 2 -12 -4 -21 -2 -21 4 0 6 20 11 45 11 31 0 45 -4 45 -13z m88 5 c-10 -2
-18 -7 -18 -11 0 -4 -9 -7 -20 -8 -11 -1 -18 2 -15 7 3 5 -3 10 -12 13 -10 2
5 4 32 4 28 0 42 -2 33 -5z m226 -4 c-2 -4 -16 -5 -30 -2 -15 3 -23 1 -19 -5
3 -7 -6 -6 -25 0 -23 9 -34 8 -47 -2 -12 -10 -15 -10 -9 -1 5 8 -1 12 -23 12
-16 0 -32 -6 -34 -12 -3 -8 -6 -6 -6 5 -1 16 8 18 98 15 55 -2 97 -6 95 -10z
m59 -3 c-3 -9 -8 -14 -10 -11 -3 3 -2 9 2 15 9 16 15 13 8 -4z m54 2 c0 -7 -8
-14 -17 -14 -9 -1 -17 5 -17 13 0 8 8 14 17 14 9 0 17 -6 17 -13z m43 1 c0 -4
-7 -8 -15 -8 -8 0 -15 4 -15 8 0 5 7 9 15 9 8 0 15 -4 15 -9z m32 5 c-6 -2 -9
-10 -6 -15 4 -7 2 -8 -4 -4 -18 11 -14 26 6 25 10 0 12 -3 4 -6z m99 -10 c11
-13 11 -15 1 -9 -8 5 -26 12 -40 16 l-27 8 26 1 c15 1 33 -7 40 -16z m105 8
c-6 -9 -82 -9 -91 1 -3 3 17 6 45 7 28 0 49 -3 46 -8z m78 -3 c-7 -11 -34 -10
-34 1 0 6 9 9 19 8 11 0 17 -5 15 -9z m96 6 c0 -8 -19 -13 -24 -6 -3 5 1 9 9
9 8 0 15 -2 15 -3z m55 -1 c-11 -3 -25 -9 -31 -14 -7 -5 -11 -3 -11 6 0 10 10
15 31 14 21 -1 25 -3 11 -6z m70 -4 c-16 -4 -33 -5 -37 -1 -4 4 10 8 30 9 37
1 37 1 7 -8z m83 4 c-10 -2 -26 -2 -35 0 -10 3 -2 5 17 5 19 0 27 -2 18 -5z
m82 3 c0 -3 -4 -8 -10 -11 -5 -3 -10 -1 -10 4 0 6 5 11 10 11 6 0 10 -2 10 -4z
m47 -11 c0 -8 -4 -12 -9 -9 -5 3 -6 10 -3 15 9 13 12 11 12 -6z m103 2 c0 -9
-46 -4 -56 6 -4 3 7 5 25 4 17 -1 31 -6 31 -10z m90 1 c0 -4 -7 -8 -15 -8 -8
0 -15 4 -15 8 0 5 7 9 15 9 8 0 15 -4 15 -9z m193 2 c-14 -6 -32 -6 -45 0 -19
7 -15 9 22 9 37 0 41 -2 23 -9z m109 -1 c-13 -5 -30 -5 -38 -1 -9 5 -1 8 23 9
33 1 35 0 15 -8z m138 7 c0 -2 -7 -6 -15 -10 -8 -3 -15 -1 -15 4 0 6 7 10 15
10 8 0 15 -2 15 -4z m95 -6 c3 -5 -1 -10 -10 -10 -9 0 -13 5 -10 10 3 6 8 10
10 10 2 0 7 -4 10 -10z m125 5 c0 -7 -30 -13 -34 -7 -3 4 4 9 15 9 10 1 19 0
19 -2z m55 -5 c3 -5 1 -10 -4 -10 -6 0 -11 5 -11 10 0 6 2 10 4 10 3 0 8 -4
11 -10z m45 0 c0 -5 -5 -10 -11 -10 -5 0 -7 5 -4 10 3 6 8 10 11 10 2 0 4 -4
4 -10z m110 -2 c0 -11 -28 -10 -35 1 -3 6 4 9 15 8 11 -1 20 -5 20 -9z m160 8
c0 -3 -4 -8 -10 -11 -5 -3 -10 -1 -10 4 0 6 5 11 10 11 6 0 10 -2 10 -4z m35
-6 c-3 -5 -11 -10 -16 -10 -6 0 -7 5 -4 10 3 6 11 10 16 10 6 0 7 -4 4 -10z
m155 2 c0 -8 -55 -10 -63 -2 -3 3 10 6 29 7 19 2 34 0 34 -5z m160 4 c0 -2 -7
-6 -15 -10 -8 -3 -15 -1 -15 4 0 6 7 10 15 10 8 0 15 -2 15 -4z m30 -6 c0 -5
-2 -10 -4 -10 -3 0 -8 5 -11 10 -3 6 -1 10 4 10 6 0 11 -4 11 -10z m194 -2
c-3 -4 -9 -8 -15 -8 -5 0 -9 4 -9 8 0 5 7 9 15 9 8 0 12 -4 9 -9z m-4790 -17
c3 -5 -1 -11 -9 -14 -9 -4 -12 -1 -8 9 6 16 10 17 17 5z"/>
<path d="M812 4678 c-16 -16 -15 -39 1 -35 15 3 27 18 27 35 0 15 -12 16 -28
0z"/>
<path d="M2047 3655 c-4 -8 -1 -17 6 -21 7 -4 9 -4 5 1 -4 4 -3 14 3 22 7 8 8
13 1 13 -5 0 -12 -7 -15 -15z"/>
<path d="M704 3528 c4 -13 9 -35 12 -50 7 -32 24 -38 24 -8 0 11 7 20 15 20
16 0 10 29 -9 43 -6 5 1 6 16 3 15 -3 30 -2 33 4 4 6 -13 10 -46 10 -48 0 -51
-1 -45 -22z"/>
<path d="M1720 3463 c1 -5 10 -24 21 -43 l20 -35 -5 34 c-4 18 -6 37 -6 42 0
5 -7 9 -15 9 -8 0 -15 -3 -15 -7z"/>
<path d="M726 3408 c-7 -21 -3 -48 6 -48 4 0 8 14 8 30 0 31 -8 40 -14 18z"/>
<path d="M1621 4733 c13 -21 38 -56 56 -77 18 -22 33 -43 33 -47 0 -4 18 -22
40 -39 43 -34 50 -35 23 -2 -10 11 -25 30 -33 42 -8 12 -19 28 -25 34 -5 6
-23 29 -40 51 -44 59 -58 75 -68 75 -5 0 2 -17 14 -37z"/>
<path d="M1797 4513 c-6 -9 29 -61 36 -53 2 3 -4 18 -13 33 -10 16 -20 25 -23
20z"/>
<path d="M2330 4319 c0 -5 5 -7 10 -4 6 3 10 8 10 11 0 2 -4 4 -10 4 -5 0 -10
-5 -10 -11z"/>
<path d="M2778 4129 c-2 -45 0 -86 4 -93 4 -6 8 31 8 82 0 50 -2 92 -4 92 -3
0 -6 -36 -8 -81z"/>
<path d="M3496 4748 c-13 -24 -30 -56 -37 -73 -6 -16 -15 -39 -20 -50 -19 -43
-39 -108 -35 -112 2 -3 15 17 28 44 14 26 41 77 62 113 21 36 42 77 46 93 13
44 -15 34 -44 -15z"/>
<path d="M2830 3992 c0 -10 36 -9 46 1 4 4 -5 7 -19 7 -15 0 -27 -4 -27 -8z"/>
<path d="M3418 3993 c6 -2 18 -2 25 0 6 3 1 5 -13 5 -14 0 -19 -2 -12 -5z"/>
<path d="M4049 3536 c9 -10 8 -28 -4 -72 -26 -98 -22 -153 16 -220 21 -38 35
-81 40 -119 l8 -60 -4 65 c-2 36 -8 107 -15 159 -6 51 -10 131 -8 177 3 83 3
84 -21 84 -19 0 -21 -3 -12 -14z m10 -183 c0 -39 -3 -51 -8 -38 -8 19 -3 95 5
95 2 0 4 -26 3 -57z"/>
<path d="M2766 3193 c-8 -77 -7 -217 2 -273 5 -28 8 24 8 143 0 103 -1 187 -2
187 -1 0 -4 -26 -8 -57z"/>
<path d="M3290 3003 c0 -24 36 -147 55 -188 13 -29 14 -29 14 -5 0 25 -19 117
-36 174 -10 34 -33 47 -33 19z"/>
<path d="M2762 2602 c-14 -30 -16 -81 -3 -101 5 -8 10 12 13 55 3 38 4 70 4
71 -1 1 -7 -10 -14 -25z"/>
<path d="M2771 2464 c0 -11 3 -14 6 -6 3 7 2 16 -1 19 -3 4 -6 -2 -5 -13z"/>
<path d="M2745 2244 c2 -75 7 -139 10 -143 4 -3 5 53 4 125 -1 72 1 136 5 143
4 6 1 11 -9 11 -13 0 -15 -17 -10 -136z"/>
<path d="M1610 3965 c0 -8 5 -15 10 -15 6 0 10 7 10 15 0 8 -4 15 -10 15 -5 0
-10 -7 -10 -15z"/>
<path d="M1930 3716 c0 -2 9 -6 20 -9 11 -3 20 -1 20 4 0 5 -9 9 -20 9 -11 0
-20 -2 -20 -4z"/>
<path d="M610 1569 c-30 -11 -60 -56 -60 -90 0 -12 11 -37 26 -56 22 -29 30
-33 73 -33 53 0 84 23 96 72 9 35 -18 90 -52 106 -31 14 -48 14 -83 1z"/>
</g>
</svg>
